<svg width="216" height="216" viewBox="0 0 216 216" fill="none" xmlns="http://www.w3.org/2000/svg">
  <path d="M26.695 196.737C24.0734 194.032 24.4599 88.6974 26.695 85.8237C28.2326 83.8575 183.47 83.8575 186.562 85.8237C189.419 87.6387 188.646 194.998 186.562 196.737C181.941 200.561 29.9552 200.098 26.695 196.737Z" fill="#191919"/>
  <path d="M109.88 206.157H106.107C85.8573 206.157 66.7163 205.863 52.1883 205.417C24.922 204.577 23.9641 203.586 21.8634 201.426C19.7628 199.267 18.0487 197.46 18.1495 141.331C18.1495 127.307 18.3596 113.972 18.6621 103.788C19.2418 84.4625 19.914 83.6222 21.4013 81.698C23.5944 78.8916 26.5184 78.774 33.6018 78.4799C37.9039 78.3034 44.021 78.1438 51.7765 78.0177C66.1449 77.7824 85.3867 77.648 106.049 77.648C126.711 77.648 146.053 77.7824 160.606 78.0177C187.495 78.4547 188.209 78.9252 190.167 80.1688C193.528 82.2946 193.897 85.9329 194.326 92.7222C195.166 106.418 195.259 134.105 195.057 153.649C194.586 198.83 193.645 199.611 190.856 201.922C188.805 203.602 187.444 204.745 160.296 205.552C146.801 205.938 129.013 206.157 109.88 206.157ZM32.5347 191.032C54.7426 193.234 158.716 193.267 180.596 191.091C181.781 174.093 182.277 109.586 180.857 91.9408C158.027 90.7476 55.7929 90.7476 32.5767 91.9408C31.2491 109.973 31.2155 174.286 32.5347 191.032Z" fill="#191919"/>
  <path d="M26.695 196.737C24.0734 194.032 24.4599 88.6974 26.695 85.8237C28.2326 83.8575 183.47 83.8575 186.562 85.8237C189.419 87.6387 188.646 194.998 186.562 196.737C181.941 200.561 29.9552 200.098 26.695 196.737Z" fill="#448AFF"/>
  <path d="M187.554 103.78C188.175 102.856 188.343 77.564 186.713 76.8918C182.008 74.8248 30.2493 74.9676 26.3925 77.3035C24.9305 78.1438 24.8128 102.772 25.4682 103.814C26.1236 104.856 186.932 104.704 187.554 103.78Z" fill="#191919"/>
  <path d="M101.142 111.25C77.3035 111.25 52.5916 111.166 37.8115 110.914C33.8371 110.855 30.7534 110.788 28.6359 110.72C24.6531 110.586 21.771 110.494 19.788 107.359C18.8217 105.822 18.2335 104.889 18.4016 92.2348C18.4688 86.8824 18.7125 79.8243 19.4855 76.5977C19.6878 75.5589 20.0999 74.5723 20.6966 73.6982C21.2933 72.8241 22.062 72.0809 22.9558 71.5141C24.8296 70.3882 25.8631 69.7664 52.3059 69.2202C66.5903 68.9261 85.7229 68.7413 106.259 68.6993C126.484 68.6993 145.709 68.7665 160.363 69.0018C186.512 69.4135 187.864 70.0017 189.419 70.6823C190.438 71.138 191.34 71.8197 192.056 72.6757C192.772 73.5318 193.284 74.5397 193.553 75.623C193.822 76.5473 194.654 79.3453 194.721 91.8231C194.788 105.032 194.175 105.965 193.141 107.502C191.108 110.536 188.822 110.594 182.697 110.746C179.596 110.821 175.134 110.897 169.354 110.956C158.598 111.073 143.869 111.157 126.744 111.208C118.703 111.241 109.989 111.25 101.142 111.25ZM31.8037 97.4024C56.44 97.9318 156.447 97.8982 181.243 97.3604C181.319 92.9995 181.243 86.9664 181.025 83.0088C157.968 81.7484 54.6166 81.9837 32.1314 83.3533C31.8793 87.2437 31.7701 93.1339 31.8037 97.4024Z" fill="#191919"/>
  <path d="M187.554 103.78C188.175 102.856 188.343 77.564 186.713 76.8918C182.008 74.8248 30.2493 74.9676 26.3925 77.3035C24.9305 78.1438 24.8128 102.772 25.4682 103.814C26.1236 104.856 186.932 104.704 187.554 103.78Z" fill="white"/>
  <path d="M23.7372 105.544C23.7372 105.544 56.4147 74.9256 55.961 73.9425C55.2972 72.5477 24.0313 72.6653 23.3255 73.5812C22.6197 74.497 17.8134 107.696 23.7372 105.544Z" fill="#191919"/>
  <path d="M185.982 43.332C186.461 42.3237 182.856 18.1663 181.167 17.721C176.193 16.3934 25.821 38.3241 22.3256 41.1725C21.0064 42.2817 24.5102 66.6239 25.3169 67.5566C26.1235 68.4893 185.512 44.3403 185.982 43.332Z" fill="#191919"/>
  <path d="M25.6781 74.2786C24.6464 74.3438 23.6138 74.1656 22.6637 73.7584C21.7135 73.3512 20.8723 72.7263 20.2081 71.9343C19.0317 70.5815 18.3175 69.7412 16.6118 57.1794C15.8892 51.8774 15.0909 44.8528 15.3766 41.5506C15.4224 40.4925 15.6838 39.4548 16.1447 38.5013C16.6056 37.5477 17.2563 36.6982 18.057 36.0049C19.7375 34.6101 20.687 33.8455 46.819 29.493C60.8848 27.1486 79.8494 24.2162 100.217 21.2248C120.249 18.2839 139.306 15.6287 153.884 13.7466C179.848 10.3855 181.26 10.7805 182.898 11.2258C183.982 11.5279 184.983 12.0732 185.825 12.8201C186.666 13.567 187.326 14.496 187.755 15.5363C188.839 17.8722 190.032 23.0398 191.301 30.8962C193.334 43.5 192.855 44.5335 192.057 46.214C190.494 49.5078 188.36 49.886 182.033 50.9951C178.874 51.5497 174.294 52.3143 168.421 53.2638C157.43 55.0367 142.448 57.381 125.097 60.0362C94.7807 64.6997 55.6837 70.4974 36.6771 73.0434C33.3161 73.4971 30.7113 73.8248 28.9215 74.0265C27.8459 74.1703 26.7631 74.2545 25.6781 74.2786ZM28.8963 46.3569C29.2156 50.2473 29.9802 56.0618 30.644 60.2715C55.1375 57.1374 154.262 42.1724 178.773 37.9291C178.201 33.8119 177.269 28.2746 176.47 24.6111C153.557 26.6529 51.0454 41.7607 28.8963 46.3569Z" fill="#191919"/>
  <path d="M185.982 43.332C186.461 42.3237 182.856 18.1663 181.167 17.721C176.193 16.3934 25.821 38.3241 22.3256 41.1725C21.0064 42.2817 24.5102 66.6239 25.3169 67.5566C26.1235 68.4893 185.512 44.3403 185.982 43.332Z" fill="white"/>
  <path d="M22.3256 41.1725C22.3256 41.1725 56.2383 64.9938 55.9358 66.0189C55.4905 67.4978 24.5523 71.9763 23.712 71.1697C22.8718 70.363 16.1413 39.9458 22.3256 41.1725Z" fill="#191919"/>
  <path d="M54.3056 32.7196C54.1544 33.5598 91.1004 61.5992 92.9574 61.2883L124.744 56.566C126.358 56.3224 87.0168 26.9974 85.1346 27.2747C83.2524 27.552 54.4569 31.8709 54.3056 32.7196Z" fill="#191919"/>
  <path d="M119.762 22.9894C119.61 23.8297 156.556 51.869 158.413 51.5581L190.2 46.8359C191.814 46.5922 152.473 17.2673 150.591 17.5446C148.709 17.8218 119.913 22.1492 119.762 22.9894Z" fill="#191919"/>
  <path d="M59.28 105.679C59.0111 104.839 91.4198 71.7074 93.3187 71.7074H125.459C127.089 71.7074 92.5037 106.494 90.5963 106.494C88.6889 106.494 59.5489 106.494 59.28 105.679Z" fill="#191919"/>
  <path d="M125.458 105.679C125.19 104.839 157.598 71.7074 159.497 71.7074C161.396 71.7074 188.368 72.2536 188.368 73.8837C188.368 74.4298 158.682 106.502 156.775 106.502C154.867 106.502 125.727 106.494 125.458 105.679Z" fill="#191919"/>
  <path d="M108.62 183.083C95.9152 183.083 83.2694 182.982 73.9257 182.814C56.9358 182.503 56.3812 182.142 55.3897 181.495C53.7596 180.445 53.3395 178.848 53.0118 172.538C52.7261 166.892 52.6421 157.976 52.8101 149.851C53.121 134.609 53.8268 134.038 55.1124 133.046C56.2636 132.122 56.356 132.046 72.7578 131.878C81.6309 131.786 93.5373 131.735 106.276 131.735C155.271 131.735 156.598 132.265 157.304 132.575C159.674 133.525 160.01 135.878 160.312 141.894C160.59 147.482 160.649 156.456 160.455 164.757C160.363 168.757 160.22 172.21 160.044 174.731C159.766 178.773 159.539 180.756 157.598 181.764C156.716 182.125 154.868 183.083 108.62 183.083Z" fill="white"/>
  <path d="M106.276 135.029C130.643 135.029 155.103 135.222 156.061 135.6C157.825 136.306 157.355 178.008 156.061 178.68C154.767 179.353 131.945 179.731 108.628 179.731C83.7735 179.731 58.2549 179.361 57.213 178.68C55.5913 177.63 55.8266 136.718 57.213 135.6C57.6919 135.222 81.9249 135.029 106.276 135.029ZM106.276 128.307C93.5204 128.307 81.6056 128.357 72.7157 128.45C67.9179 128.5 64.1367 128.559 61.4731 128.635C56.5828 128.761 54.9359 128.803 52.9949 130.366C50.3229 132.517 50.1044 135.642 49.8356 139.608C49.6591 142.196 49.5247 145.709 49.4406 149.784C49.2726 158.018 49.3566 167.034 49.6507 172.748C49.928 178.193 50.1296 182.117 53.5579 184.335C55.4148 185.537 55.9106 185.856 73.8669 186.192C83.2273 186.369 95.8984 186.461 108.628 186.461C120.913 186.461 132.298 186.369 140.701 186.209C156.792 185.89 157.582 185.478 159.186 184.663C162.884 182.739 163.152 178.924 163.43 174.882C163.606 172.311 163.749 168.816 163.85 164.799C164.043 156.397 163.984 147.364 163.699 141.692C163.589 139.55 163.455 137.886 163.287 136.651C163.077 135.113 162.531 131.021 158.581 129.45C157.161 128.887 156.733 128.71 140.037 128.542C131.038 128.45 119.031 128.399 106.301 128.399L106.276 128.307Z" fill="#191919"/>
  <path d="M70.1614 146.104C65.7501 146.104 65.54 152.616 69.7413 152.935C73.9426 153.254 136.441 153.254 139.382 152.935C142.323 152.616 143.793 146.633 139.071 146.322C134.349 146.011 75.6231 146.104 70.1614 146.104Z" fill="#191919"/>
  <path d="M70.1614 159.968C65.7501 159.968 65.54 166.48 69.7413 166.799C73.9426 167.118 106.192 167.118 109.132 166.799C112.073 166.48 113.544 160.497 108.822 160.186C104.099 159.875 75.6231 159.968 70.1614 159.968Z" fill="#191919"/>
</svg>
