<svg width="269" height="179" viewBox="0 0 269 179" fill="none" xmlns="http://www.w3.org/2000/svg">
  <path d="M43.9447 24.403C60.9218 12.4141 217.178 12.1652 228.269 27.4976C239.36 42.83 240.745 146.662 222.924 155.091C205.102 163.52 58.0761 168.919 43.9447 153.727C29.8134 138.536 25.8965 37.1709 43.9447 24.403V24.403Z" fill="#191919"/>
  <path d="M120.91 172.003C49.1168 172.003 40.5255 162.762 37.5932 159.624C24.5114 145.558 21.0381 89.2924 24.4032 56.7665C27.6493 25.3011 36.1432 19.2958 38.9349 17.3265C53.7587 6.8416 124.415 6.90653 138.384 7.02555C158.358 7.07531 178.316 8.15879 198.177 10.2716C225.358 13.5177 232.067 18.019 235.259 22.4445C246.761 38.2963 248.113 109.797 239.998 141.371C236.968 153.186 232.716 160.036 226.635 162.925C213.174 169.298 158.954 171.581 132.163 171.927C128.253 171.978 124.502 172.003 120.91 172.003ZM50.188 147.722C54.5161 150.968 80.2468 155.372 133.948 154.593C179.794 153.922 213.012 149.929 219.017 147.376C221.798 144.79 227.457 128.029 227.825 91.2941C228.161 57.7512 223.995 37.3008 221.495 32.9618C216.529 29.7157 189.435 24.6086 135.593 24.3056C84.5425 24.0459 53.7154 28.4173 48.9329 31.4578C47.5587 32.4641 43.6093 39.2809 41.6183 58.7358C39.9681 77.1708 40.1385 95.7235 42.1269 114.125C44.4965 136.047 48.381 145.59 50.188 147.722V147.722Z" fill="#191919"/>
  <path d="M43.9447 24.403C60.9218 12.4141 217.178 12.1652 228.269 27.4976C239.36 42.83 240.745 146.662 222.924 155.091C205.102 163.52 58.0761 168.919 43.9447 153.727C29.8134 138.536 25.8965 37.1709 43.9447 24.403V24.403Z" fill="white"/>
  <path d="M21.5465 14.3725C10.6072 18.0082 19.3825 93.9559 30.3651 101.498C33.9574 103.965 32.1288 108.574 30.3651 110.792C23.1047 119.903 7.64243 158.954 9.73075 162.275C15.0111 170.694 30.1162 170.326 33.6328 169.06C36.0674 168.183 39.4866 167.155 41.207 168.508C45.6109 172.014 67.3165 170.51 69.6428 163.541C70.7249 160.403 48.0022 115.672 40.6985 108.033C38.6751 105.923 40.2765 104.365 42.4622 102.504C49.2465 96.7259 86.2304 36.2188 89.0545 30.4299C91.8786 24.641 93.9993 10.9533 82.2593 9.33028C72.6833 7.99938 32.118 10.8559 21.5465 14.3725V14.3725Z" fill="#191919"/>
  <path d="M245.36 166.36C245.297 165.832 245.044 165.346 244.646 164.993C244.249 164.64 243.736 164.445 243.205 164.445C242.673 164.445 242.16 164.64 241.763 164.993C241.366 165.346 241.112 165.832 241.05 166.36" stroke="#2F72E2" stroke-width="1.67" stroke-linecap="round" stroke-linejoin="round"/>
  <path opacity="0.2" d="M203.28 116.79L203.41 116.58C204.479 114.903 205.959 113.527 207.709 112.582C209.459 111.637 211.421 111.154 213.41 111.18C219.93 111.18 224.48 116.33 225.73 123.18C226.45 121.93 228.59 121.09 230.02 121.09C231.143 121.162 232.193 121.674 232.941 122.514C233.69 123.355 234.077 124.456 234.02 125.58C233.326 126.571 232.865 127.706 232.67 128.9C232.744 128.365 232.708 127.82 232.566 127.299C232.424 126.778 232.178 126.291 231.842 125.868C231.507 125.445 231.089 125.094 230.614 124.836C230.14 124.579 229.618 124.42 229.08 124.37C227.88 124.37 226.18 124.25 225.52 125.25C224.16 120.25 220.61 117.34 215.64 117.34C210.67 117.34 208.96 119.77 207.53 124.66C207.53 124.66 204.6 121.37 201.05 122.8" fill="#2F72E2"/>
  <path d="M233.13 103.33C233.161 102.462 233.363 101.608 233.726 100.819C234.089 100.029 234.605 99.3199 235.244 98.7312C235.883 98.1425 236.632 97.6864 237.448 97.3892C238.265 97.092 239.132 96.9597 240 97C241.865 96.9831 243.661 97.7017 245 99" stroke="#2F72E2" stroke-width="1.67" stroke-linecap="round" stroke-linejoin="round"/>
  <path opacity="0.2" d="M182.45 142.83L182.28 142.61C180.878 140.754 179.053 139.26 176.957 138.251C174.861 137.243 172.555 136.748 170.23 136.81C162.34 136.81 156.83 142.33 155.32 149.67C154.45 148.33 151.86 147.44 150.13 147.44C149.494 147.435 148.864 147.555 148.275 147.793C147.685 148.031 147.149 148.383 146.696 148.829C146.243 149.275 145.882 149.806 145.634 150.391C145.386 150.976 145.255 151.604 145.25 152.24C146.079 153.279 146.641 154.504 146.89 155.81C146.88 155.633 146.88 155.456 146.89 155.28C146.894 154.707 147.011 154.141 147.233 153.614C147.456 153.086 147.781 152.608 148.188 152.206C148.596 151.804 149.079 151.486 149.609 151.27C150.14 151.055 150.707 150.946 151.28 150.95C152.74 150.95 154.79 150.82 155.59 151.95C157.24 146.55 161.59 143.45 167.59 143.45C173.59 143.45 175.67 146.07 177.41 151.31C177.41 151.31 180.95 147.78 185.24 149.31" fill="#2F72E2"/>
  <path d="M155.44 150.71C155.44 143.13 162.1 136.62 170.32 136.62C178.14 136.62 184.55 142.19 185.15 149.27" stroke="#2F72E2" stroke-width="1.67" stroke-linecap="round" stroke-linejoin="round"/>
  <path d="M191.21 156.68C191.21 152.59 187.62 149.27 183.21 149.27C181.024 149.255 178.92 150.099 177.35 151.62" stroke="#2F72E2" stroke-width="1.67" stroke-linecap="round" stroke-linejoin="round"/>
  <path d="M145.25 151.9C145.349 150.603 145.934 149.392 146.888 148.508C147.842 147.624 149.095 147.133 150.395 147.133C151.695 147.133 152.948 147.624 153.902 148.508C154.856 149.392 155.441 150.603 155.54 151.9" stroke="#2F72E2" stroke-width="1.67" stroke-linecap="round" stroke-linejoin="round"/>
  <path d="M112.88 143.18C114.07 141.786 115.622 140.749 117.365 140.183C119.107 139.617 120.973 139.545 122.754 139.973C124.536 140.402 126.164 141.315 127.459 142.611C128.753 143.908 129.664 145.538 130.09 147.32" stroke="#2F72E2" stroke-width="1.67" stroke-linecap="round" stroke-linejoin="round"/>
  <path d="M166.54 136.2C164.1 128.35 155.9 123.93 148.66 126.2" stroke="#2F72E2" stroke-width="1.67" stroke-linecap="round" stroke-linejoin="round"/>
  <path opacity="0.2" d="M149.63 125.93C149.63 125.93 163.91 128.22 161.03 137.3L166.97 136.69C166.97 136.69 164.21 128.62 157.29 126.15C151.81 125.12 149.63 125.93 149.63 125.93Z" fill="#2F72E2"/>
  <path opacity="0.2" d="M118.93 139.29C120.4 129.59 128.51 126.84 133.59 126.84C141.35 126.84 146.75 132.36 148.24 139.69C149.09 138.35 151.64 137.46 153.34 137.46C153.971 137.461 154.594 137.587 155.176 137.829C155.758 138.072 156.287 138.426 156.731 138.873C157.176 139.32 157.529 139.849 157.769 140.432C158.009 141.015 158.131 141.64 158.13 142.27C157.22 143.27 154.64 140.98 152.26 140.98C150.83 140.98 148.81 140.85 148.02 141.92C146.4 136.53 142.18 133.43 136.27 133.43C130.36 133.43 128.33 136.04 126.63 141.29" fill="#2F72E2"/>
  <path d="M118.93 139.29C119.51 132.22 125.82 126.64 133.5 126.64C141.58 126.64 148.12 133.15 148.12 140.74" stroke="#2F72E2" stroke-width="1.67" stroke-linecap="round" stroke-linejoin="round"/>
  <path d="M158.13 141.92C158.072 140.618 157.514 139.389 156.573 138.488C155.631 137.588 154.378 137.085 153.075 137.085C151.772 137.085 150.519 137.588 149.577 138.488C148.636 139.389 148.078 140.618 148.02 141.92" stroke="#2F72E2" stroke-width="1.67" stroke-linecap="round" stroke-linejoin="round"/>
  <path opacity="0.2" d="M112.88 143.51C115.684 143.486 118.484 143.272 121.26 142.87C127.33 142.14 129.64 145.47 129.64 145.47C128.575 143.3 126.727 141.614 124.47 140.75C120.71 139.33 114.6 141.38 112.88 143.18" fill="#2F72E2"/>
  <path d="M227.12 109.52C227.12 106.52 229.92 103.91 233.36 103.91C236.64 103.91 239.36 106.13 239.58 108.91" stroke="#2F72E2" stroke-width="1.67" stroke-linecap="round" stroke-linejoin="round"/>
  <path d="M242.83 112.58C242.753 111.511 242.257 110.515 241.45 109.809C240.643 109.103 239.59 108.744 238.52 108.81C237.359 108.796 236.236 109.225 235.38 110.01" stroke="#2F72E2" stroke-width="1.67" stroke-linecap="round" stroke-linejoin="round"/>
  <path d="M222.61 145.75C222.536 144.681 222.042 143.684 221.237 142.976C220.432 142.268 219.38 141.907 218.31 141.97C217.146 141.955 216.019 142.384 215.16 143.17" stroke="#2F72E2" stroke-width="1.67" stroke-linecap="round" stroke-linejoin="round"/>
  <path d="M222.86 110C222.922 109.472 223.176 108.986 223.573 108.633C223.971 108.28 224.483 108.085 225.015 108.085C225.546 108.085 226.059 108.28 226.456 108.633C226.854 108.986 227.107 109.472 227.17 110" stroke="#2F72E2" stroke-width="1.67" stroke-linecap="round" stroke-linejoin="round"/>
  <path d="M203.07 150.23C202.889 149.535 202.798 148.819 202.8 148.1C202.799 146.491 203.25 144.914 204.102 143.549C204.954 142.184 206.172 141.085 207.617 140.378C209.063 139.672 210.678 139.385 212.279 139.552C213.879 139.718 215.401 140.331 216.67 141.32" stroke="#2F72E2" stroke-width="1.67" stroke-linecap="round" stroke-linejoin="round"/>
  <path d="M195 136.81C193.918 135.208 193.408 133.287 193.553 131.359C193.698 129.431 194.489 127.608 195.798 126.185C197.108 124.763 198.859 123.823 200.768 123.519C202.677 123.215 204.634 123.564 206.32 124.51" stroke="#2F72E2" stroke-width="1.67" stroke-linecap="round" stroke-linejoin="round"/>
  <path d="M189.23 151.84C190.744 149.778 192.887 148.263 195.336 147.524C197.785 146.785 200.408 146.86 202.81 147.74" stroke="#2F72E2" stroke-width="1.67" stroke-linecap="round" stroke-linejoin="round"/>
  <path d="M201.17 123C201.177 120.409 202.037 117.892 203.618 115.838C205.198 113.784 207.41 112.307 209.913 111.636C212.416 110.964 215.071 111.136 217.467 112.123C219.863 113.111 221.867 114.86 223.17 117.1" stroke="#2F72E2" stroke-width="1.67" stroke-linecap="round" stroke-linejoin="round"/>
  <path d="M169.68 136.11C170.559 133.902 171.968 131.943 173.781 130.406C175.595 128.87 177.758 127.802 180.081 127.297C182.403 126.793 184.815 126.867 187.102 127.512C189.39 128.158 191.484 129.355 193.2 131" stroke="#2F72E2" stroke-width="1.67" stroke-linecap="round" stroke-linejoin="round"/>
  <path d="M40.3301 141.36C39.4669 140.362 38.9655 139.103 38.9071 137.785C38.8487 136.467 39.2367 135.168 40.0082 134.098C40.7798 133.028 41.8898 132.25 43.1586 131.889C44.4275 131.528 45.781 131.606 47.0001 132.11" stroke="#2F72E2" stroke-width="1.67" stroke-linecap="round" stroke-linejoin="round"/>
  <path d="M43.38 131.49C43.1237 129.715 43.4713 127.905 44.3669 126.352C45.2626 124.798 46.6543 123.59 48.3188 122.922C49.9832 122.254 51.8238 122.165 53.545 122.669C55.2662 123.173 56.7683 124.24 57.81 125.7" stroke="#2F72E2" stroke-width="1.67" stroke-linecap="round" stroke-linejoin="round"/>
  <path d="M23.1299 143C23.5435 141.432 24.3365 139.989 25.4389 138.8C26.5413 137.61 27.9194 136.71 29.4517 136.178C30.984 135.647 32.6236 135.5 34.2258 135.752C35.8281 136.003 37.344 136.645 38.6399 137.62" stroke="#2F72E2" stroke-width="1.67" stroke-linecap="round" stroke-linejoin="round"/>
  <path d="M241.09 165.89C241.09 162.89 238.3 160.28 234.86 160.28C231.58 160.28 228.86 162.5 228.64 165.28" stroke="#2F72E2" stroke-width="1.67" stroke-linecap="round" stroke-linejoin="round"/>
  <path d="M225.39 169C225.465 167.929 225.959 166.931 226.767 166.222C227.574 165.514 228.628 165.154 229.7 165.22C230.861 165.206 231.984 165.635 232.84 166.42" stroke="#2F72E2" stroke-width="1.67" stroke-linecap="round" stroke-linejoin="round"/>
  <path d="M85.9998 131.87C85.9998 128.87 83.2098 126.26 79.7598 126.26C76.4898 126.26 73.7598 128.48 73.5498 131.26" stroke="#2F72E2" stroke-width="1.67" stroke-linecap="round" stroke-linejoin="round"/>
  <path d="M115.45 126.2C114.01 121.78 108.68 119.32 103.63 120.97C101.979 121.463 100.488 122.382 99.3059 123.636C98.1242 124.89 97.2943 126.433 96.8999 128.11" stroke="#2F72E2" stroke-width="1.67" stroke-linecap="round" stroke-linejoin="round"/>
  <path d="M97.3599 130.26C97.2943 129.28 96.8702 128.358 96.1685 127.67C95.4667 126.983 94.5365 126.577 93.5551 126.531C92.5736 126.486 91.6097 126.803 90.8471 127.422C90.0844 128.042 89.5764 128.92 89.4199 129.89" stroke="#2F72E2" stroke-width="1.75" stroke-linecap="round" stroke-linejoin="round"/>
  <path d="M70.25 134.93C70.327 133.862 70.8215 132.868 71.6263 132.163C72.4311 131.457 73.4815 131.097 74.55 131.16C75.714 131.147 76.8397 131.576 77.7 132.36" stroke="#2F72E2" stroke-width="1.67" stroke-linecap="round" stroke-linejoin="round"/>
  <path d="M58.8599 120.3C58.9343 119.231 59.4281 118.236 60.2335 117.53C61.0389 116.823 62.0908 116.464 63.1599 116.53C64.3239 116.517 65.4495 116.946 66.3099 117.73" stroke="#2F72E2" stroke-width="1.67" stroke-linecap="round" stroke-linejoin="round"/>
  <path d="M90.2202 132.34C90.1578 131.812 89.9039 131.326 89.5067 130.973C89.1095 130.62 88.5966 130.425 88.0652 130.425C87.5337 130.425 87.0208 130.62 86.6236 130.973C86.2264 131.326 85.9725 131.812 85.9102 132.34" stroke="#2F72E2" stroke-width="1.67" stroke-linecap="round" stroke-linejoin="round"/>
  <path d="M19.8901 124.17C19.8901 121.17 22.6801 118.56 26.1301 118.56C29.4101 118.56 32.1301 120.78 32.3501 123.56" stroke="#2F72E2" stroke-width="1.67" stroke-linecap="round" stroke-linejoin="round"/>
  <path d="M35.5901 127.23C35.5157 126.161 35.0219 125.166 34.2165 124.46C33.4111 123.753 32.3592 123.394 31.2901 123.46C30.1261 123.447 29.0005 123.876 28.1401 124.66" stroke="#2F72E2" stroke-width="1.67" stroke-linecap="round" stroke-linejoin="round"/>
  <path d="M15.6201 124.64C15.6339 124.373 15.7013 124.111 15.8181 123.87C15.935 123.629 16.099 123.415 16.3004 123.238C16.5019 123.062 16.7366 122.928 16.9908 122.844C17.2449 122.76 17.5134 122.728 17.7801 122.75C18.0461 122.73 18.3134 122.763 18.5664 122.847C18.8194 122.932 19.053 123.066 19.2533 123.242C19.4536 123.418 19.6167 123.633 19.7329 123.873C19.8492 124.113 19.9162 124.374 19.9301 124.64" stroke="#2F72E2" stroke-width="1.67" stroke-linecap="round" stroke-linejoin="round"/>
  <path d="M66.3799 120.19C66.3799 118.322 67.1221 116.53 68.4433 115.209C69.7645 113.887 71.5564 113.145 73.4249 113.145C75.2933 113.145 77.0853 113.887 78.4065 115.209C79.7276 116.53 80.4699 118.322 80.4699 120.19" stroke="#2F72E2" stroke-width="1.67" stroke-linecap="round" stroke-linejoin="round"/>
  <path opacity="0.2" d="M44.69 132.08C45.7949 132.062 46.882 132.36 47.8229 132.939C48.7638 133.518 49.5193 134.355 50 135.35C49.5902 134.912 49.0945 134.564 48.5439 134.326C47.9933 134.089 47.3997 133.968 46.8 133.97C45.7392 133.97 44.7218 134.391 43.9716 135.142C43.2215 135.892 42.8 136.909 42.8 137.97C42.8 139.031 43.2215 140.048 43.9716 140.798C44.7218 141.549 45.7392 141.97 46.8 141.97C47.3121 141.969 47.8199 141.878 48.3 141.7C47.263 142.473 46.0037 142.891 44.71 142.89C43.9677 142.945 43.222 142.847 42.5194 142.601C41.8169 142.355 41.1727 141.967 40.6271 141.46C40.0815 140.954 39.6463 140.34 39.3487 139.658C39.0511 138.976 38.8975 138.239 38.8975 137.495C38.8975 136.751 39.0511 136.014 39.3487 135.332C39.6463 134.65 40.0815 134.036 40.6271 133.53C41.1727 133.023 41.8169 132.635 42.5194 132.389C43.222 132.143 43.9677 132.045 44.71 132.1L44.69 132.08Z" fill="#2F72E2"/>
  <path opacity="0.2" d="M82.7699 147.78L82.6499 147.61C81.626 146.228 80.2848 145.112 78.7393 144.357C77.1939 143.601 75.4895 143.229 73.7699 143.27C67.9599 143.27 63.9099 147.41 62.7699 152.91C62.1299 151.91 60.2199 151.23 58.9499 151.23C58.4771 151.231 58.0092 151.326 57.573 151.508C57.1367 151.69 56.7406 151.956 56.4072 152.292C56.0739 152.627 55.8098 153.024 55.6301 153.462C55.4504 153.899 55.3586 154.367 55.3599 154.84C55.9686 155.621 56.3802 156.537 56.5599 157.51C56.5495 157.377 56.5495 157.243 56.5599 157.11C56.5599 156.251 56.9012 155.427 57.5088 154.819C58.1165 154.211 58.9406 153.87 59.7999 153.87C60.8699 153.87 62.3799 153.77 62.9699 154.58C64.1799 150.53 67.3499 148.21 71.7699 148.21C76.1899 148.21 77.7199 150.21 78.9999 154.1C78.9999 154.1 82.4399 151.46 86.1999 153.31C86.1999 153.31 84.6599 147.65 87.7099 144.31C90.7599 140.97 93.0999 140.94 93.0999 140.94C91.4686 140.227 89.627 140.163 87.9499 140.76C85.1599 141.76 83.0899 144.46 82.9499 146.32L82.7699 147.78Z" fill="#2F72E2"/>
  <path d="M50.1773 178.982C45.8492 178.982 41.4453 178.387 38.0802 176.71C37.7123 176.818 37.2254 176.969 36.5654 177.207C30.3437 179.447 10.4235 179.653 2.40564 166.885C0.0251733 163.098 0.696033 158.607 2.76271 151.65C4.07197 147.257 6.10619 141.522 8.5083 135.506C10.5101 130.485 17.2511 114.093 22.8669 106.378C19.6208 102.774 14.6867 93.9343 10.8238 69.9457C8.55158 55.8792 6.79869 36.0781 8.65978 22.8232C9.2008 19.0144 10.6291 8.88663 18.8201 6.15991C30.4844 2.28624 72.2616 -0.797547 83.4065 0.749758C86.3199 1.06332 89.1144 2.07611 91.5522 3.70194C93.99 5.32777 95.9989 7.5185 97.408 10.0877C101.974 18.5924 99.1825 29.218 96.8129 34.1629C94.5406 38.9022 62.1121 92.6575 50.4803 106.551C55.9554 114.374 62.8587 127.434 65.9966 133.537C79.8142 160.382 78.8944 163.13 77.834 166.301C76.1569 171.321 71.6665 174.957 64.5034 177.121C59.8313 178.372 55.014 178.997 50.1773 178.982V178.982ZM45.9574 161.269C48.6192 162.081 55.6199 161.648 59.7208 160.458C55.3927 150.059 42.8844 125.962 36.6303 116.863C31.0146 124.653 20.8326 150.124 18.6145 159.062C21.8606 161.031 28.3528 161.421 30.8522 160.825C33.6547 159.862 40.504 157.504 45.9574 161.269ZM35.5807 94.5835C36.0749 94.9415 36.5448 95.3319 36.9874 95.7521C43.1874 89.498 78.1046 33.2107 81.1883 26.6752C82.7032 23.5265 82.8547 19.101 82.0972 18.1921C81.7592 18.0231 81.3919 17.9202 81.0152 17.8891C73.0731 16.8071 38.1668 19.2525 26.3943 22.0009C25.1067 26.567 24.425 39.6163 26.654 58.2489C29.1102 78.7534 33.3842 91.9001 35.5915 94.5943L35.5807 94.5835Z" fill="#191919"/>
  <path d="M247.54 14.3725C258.479 18.0082 249.704 93.9559 238.721 101.498C235.129 103.965 236.957 108.574 238.721 110.792C245.981 119.903 260.946 158.694 259.355 162.275C256.542 168.616 249.044 169.114 245.289 168.302C242.67 167.74 240.279 166.214 237.715 167.75C231.688 171.386 201.791 170.499 199.465 163.531C198.383 160.393 221.106 115.661 228.409 108.022C230.433 105.912 228.831 104.354 226.646 102.493C219.85 96.7151 182.856 36.1863 180.118 30.4082C177.381 24.6302 175.173 10.9317 186.913 9.30864C196.403 7.99938 236.968 10.8559 247.54 14.3725Z" fill="#191919"/>
  <path d="M223.389 178.473C215.306 178.473 206.78 177.391 201.402 175.368C196.024 173.345 192.605 170.326 191.252 166.279C190.17 163.098 189.272 160.36 203.09 133.515C206.228 127.412 213.131 114.363 218.606 106.529C206.996 92.6575 174.535 38.9022 172.274 34.1629C169.904 29.218 167.112 18.5925 171.678 10.0877C173.088 7.51851 175.096 5.32778 177.534 3.70195C179.972 2.07613 182.767 1.06334 185.68 0.749772C196.825 -0.797533 238.602 2.27544 250.266 6.15993C258.468 8.88665 259.896 19.0145 260.437 22.8232C262.309 36.0781 260.546 55.8576 258.273 69.9457C254.411 93.9343 249.466 102.764 246.22 106.378C251.738 113.952 258.425 130.41 260.405 135.441C269.97 159.7 268.466 163.087 267.265 165.803C262.785 175.898 251.77 178.571 243.46 176.785C242.378 176.558 241.502 176.277 240.766 176.039H240.593C236.525 177.694 230.108 178.473 223.389 178.473ZM209.614 159.862C216.431 161.496 229.621 161.702 233.419 160.209C238.591 157.212 243.515 158.759 245.895 159.505C246.328 159.646 246.782 159.787 247.042 159.841C248.164 160.023 249.313 159.938 250.396 159.592C248.232 150.719 237.812 124.437 232.424 116.863C226.31 125.8 214.105 149.183 209.604 159.873L209.614 159.862ZM233.311 160.295H233.246H233.311ZM194.077 17.6295C192.068 17.5954 190.058 17.6858 188.06 17.9C187.682 17.9308 187.314 18.0376 186.978 18.2138C186.221 19.0902 186.383 23.5265 187.887 26.6861C191.014 33.1783 225.65 89.1193 232.099 95.7629C232.538 95.3432 233.004 94.9528 233.495 94.5943C235.659 91.9109 239.987 78.7642 242.432 58.2597C244.661 39.638 243.98 26.5887 242.692 22.0117C232.889 19.7286 206.996 17.6295 194.077 17.6295Z" fill="#191919"/>
  <path d="M21.5465 14.3725C10.6072 18.0082 19.3825 93.9559 30.3651 101.498C33.9574 103.965 32.1288 108.574 30.3651 110.792C23.1047 119.903 7.64243 158.954 9.73075 162.275C15.0111 170.694 30.1162 170.326 33.6328 169.06C36.0674 168.183 39.4866 167.155 41.207 168.508C45.6109 172.014 67.3165 170.51 69.6428 163.541C70.7249 160.403 48.0022 115.672 40.6985 108.033C38.6751 105.923 40.2765 104.365 42.4622 102.504C49.2465 96.7259 86.2304 36.2188 89.0545 30.4299C91.8786 24.641 93.9993 10.9533 82.2593 9.33028C72.6833 7.99938 32.118 10.8559 21.5465 14.3725V14.3725Z" fill="#448AFF"/>
  <path d="M29.5428 100.805C26.7187 101.498 27 107.914 29.5428 110.922C32.0855 113.93 41.088 113.66 42.8626 110.479C44.6371 107.297 46.4766 103.835 43.4685 101.325C42.0402 100.134 39.5299 101.866 36.8248 101.876C33.806 101.887 31.036 100.448 29.5428 100.805V100.805Z" fill="white"/>
  <path d="M247.54 14.3725C258.479 18.0082 249.704 93.9559 238.721 101.498C235.129 103.965 236.957 108.574 238.721 110.792C245.981 119.903 260.946 158.694 259.355 162.275C256.542 168.616 249.044 169.114 245.289 168.302C242.67 167.74 240.279 166.214 237.715 167.75C231.688 171.386 201.791 170.499 199.465 163.531C198.383 160.393 221.106 115.661 228.409 108.022C230.433 105.912 228.831 104.354 226.646 102.493C219.85 96.7151 182.856 36.1863 180.118 30.4082C177.381 24.6302 175.173 10.9317 186.913 9.30864C196.403 7.99938 236.968 10.8559 247.54 14.3725Z" fill="#448AFF"/>
  <path d="M239.533 100.805C242.357 101.498 242.075 107.914 239.533 110.922C236.99 113.93 228.377 113.032 226.213 110.479C223.865 107.698 222.642 102.904 225.607 101.325C227.922 100.059 228.994 102.255 232.251 101.876C235.507 101.498 238.05 100.448 239.533 100.805V100.805Z" fill="white"/>
  <path d="M116.105 55.2192C111.258 58.2922 112.708 121.093 115.51 124.794C118.313 128.494 171.289 95.1462 171.289 89.2383C171.289 83.3304 120.92 52.1463 116.105 55.2192Z" fill="#448AFF"/>
</svg>
