<svg width="217" height="216" viewBox="0 0 217 216" fill="none" xmlns="http://www.w3.org/2000/svg">
  <path d="M38.1964 64.7669C51.38 55.4569 172.721 55.2636 181.334 67.17C189.947 79.0765 191.022 159.707 177.183 166.253C163.344 172.799 49.1702 176.991 38.1964 165.194C27.2227 153.397 24.181 74.6819 38.1964 64.7669Z" fill="#191919"/>
  <path d="M97.9639 179.386C42.2129 179.386 35.5413 172.21 33.2642 169.774C23.1055 158.85 20.4083 115.157 23.0215 89.899C25.5423 65.4643 32.1383 60.8009 34.3061 59.2716C45.8176 51.1296 100.686 51.18 111.534 51.2724C127.045 51.3111 142.543 52.1524 157.967 53.7932C179.074 56.3139 184.283 59.8094 186.762 63.2461C195.694 75.5558 196.744 131.08 190.442 155.599C188.09 164.774 184.788 170.093 180.065 172.336C169.612 177.286 127.507 179.058 106.703 179.327C103.666 179.367 100.754 179.386 97.9639 179.386ZM43.0448 160.531C46.4058 163.052 66.3871 166.471 108.089 165.866C143.691 165.346 169.486 162.245 174.15 160.262C176.309 158.254 180.704 145.238 180.99 116.712C181.25 90.6636 178.015 74.7828 176.074 71.4133C172.217 68.8926 151.177 64.9266 109.366 64.6913C69.7229 64.4896 45.784 67.8843 42.0701 70.2454C41.003 71.0268 37.936 76.3204 36.39 91.4282C35.1085 105.744 35.2408 120.151 36.7849 134.441C38.625 151.465 41.6416 158.876 43.0448 160.531Z" fill="#191919"/>
  <path d="M38.1967 64.7669C51.3803 55.4569 172.722 55.2636 181.334 67.17C189.947 79.0765 191.022 159.707 177.183 166.253C163.344 172.799 49.1704 176.991 38.1967 165.194C27.2229 153.397 24.1812 74.6819 38.1967 64.7669Z" fill="white"/>
  <path d="M20.8033 56.9777C12.3084 59.801 19.1228 118.779 27.6514 124.635C30.4411 126.551 29.021 130.13 27.6514 131.853C22.0133 138.928 10.0061 169.253 11.6278 171.832C15.7282 178.369 27.4582 178.084 30.189 177.101C32.0796 176.42 34.7348 175.622 36.0708 176.672C39.4906 179.395 56.3462 178.227 58.1527 172.815C58.993 170.379 41.3476 135.642 35.6759 129.71C34.1046 128.072 35.3482 126.862 37.0455 125.417C42.3139 120.93 71.0338 73.9425 73.2269 69.4471C75.42 64.9518 77.0669 54.3225 67.9501 53.0622C60.5138 52.0286 29.0126 54.2469 20.8033 56.9777Z" fill="#191919"/>
  <path d="M43.0364 184.806C39.6754 184.806 36.2555 184.344 33.6423 183.041C33.3566 183.125 32.9785 183.243 32.466 183.428C27.6345 185.167 12.1654 185.327 5.93908 175.412C4.09052 172.471 4.61148 168.984 6.21637 163.581C7.23308 160.169 8.81276 155.716 10.6781 151.044C12.2326 147.146 17.4674 134.416 21.8283 128.425C19.3076 125.627 15.476 118.762 12.4763 100.133C10.7117 89.2099 9.35052 73.8332 10.7958 63.5401C11.2159 60.5824 12.325 52.7176 18.6858 50.6002C27.7437 47.5921 60.186 45.1973 68.8406 46.3989C71.103 46.6424 73.2731 47.4289 75.1662 48.6914C77.0593 49.954 78.6193 51.6552 79.7135 53.6503C83.2594 60.2547 81.0915 68.506 79.2514 72.346C77.4869 76.0263 52.3044 117.77 43.2716 128.559C47.5233 134.634 52.8842 144.776 55.3209 149.515C66.051 170.362 65.3368 172.496 64.5133 174.958C63.2109 178.857 59.7239 181.68 54.1614 183.361C50.5332 184.332 46.7923 184.818 43.0364 184.806ZM39.7594 171.051C41.8264 171.681 47.2629 171.345 50.4474 170.421C47.0864 162.346 37.3731 143.633 32.5164 136.567C28.1554 142.617 20.2486 162.396 18.5261 169.337C21.0469 170.866 26.0884 171.168 28.0294 170.706C30.2057 169.958 35.5245 168.127 39.7594 171.051ZM31.7013 119.266C32.0851 119.544 32.45 119.847 32.7937 120.173C37.6083 115.317 64.7234 71.6066 67.1181 66.5314C68.2945 64.0863 68.4121 60.6496 67.8239 59.9438C67.5614 59.8125 67.2762 59.7327 66.9837 59.7085C60.8162 58.8683 33.7095 60.7673 24.5676 62.9015C23.5676 66.4474 23.0383 76.5809 24.7692 91.0501C26.6766 106.973 29.9956 117.182 31.7097 119.274L31.7013 119.266Z" fill="#191919"/>
  <path d="M196.299 56.9778C204.794 59.801 197.98 118.779 189.451 124.635C186.661 126.551 188.081 130.13 189.451 131.853C195.089 138.928 206.71 169.051 205.475 171.832C203.29 176.756 197.467 177.143 194.551 176.513C192.518 176.076 190.661 174.891 188.67 176.084C183.989 178.907 160.773 178.218 158.966 172.807C158.126 170.37 175.772 135.634 181.443 129.702C183.015 128.063 181.771 126.853 180.074 125.408C174.797 120.921 146.069 73.9173 143.943 69.4304C141.817 64.9434 140.103 54.3058 149.219 53.0454C156.589 52.0287 188.09 54.2469 196.299 56.9778Z" fill="#191919"/>
  <path d="M177.544 184.411C171.268 184.411 164.647 183.571 160.47 181.999C156.294 180.428 153.639 178.084 152.589 174.941C151.749 172.471 151.051 170.345 161.781 149.498C164.218 144.759 169.579 134.626 173.831 128.542C164.815 117.77 139.607 76.0263 137.851 72.346C136.011 68.506 133.843 60.2547 137.389 53.6503C138.483 51.6552 140.043 49.954 141.936 48.6914C143.829 47.4289 145.999 46.6424 148.262 46.3989C156.916 45.1973 189.358 47.5837 198.416 50.6002C204.786 52.7176 205.895 60.5824 206.315 63.5401C207.768 73.8333 206.399 89.1931 204.634 100.133C201.635 118.762 197.795 125.618 195.274 128.425C199.559 134.306 204.752 147.087 206.29 150.994C213.717 169.832 212.549 172.462 211.617 174.572C208.138 182.411 199.584 184.487 193.131 183.1C192.291 182.924 191.61 182.705 191.039 182.52H190.905C187.745 183.806 182.762 184.411 177.544 184.411ZM166.848 169.959C172.142 171.227 182.384 171.387 185.334 170.227C189.35 167.9 193.173 169.101 195.022 169.681C195.358 169.79 195.711 169.9 195.912 169.942C196.784 170.083 197.676 170.017 198.517 169.748C196.837 162.858 188.745 142.449 184.561 136.567C179.813 143.507 170.335 161.665 166.84 169.967L166.848 169.959ZM185.25 170.295H185.199H185.25ZM154.782 59.5069C153.222 59.4804 151.662 59.5506 150.11 59.717C149.817 59.7409 149.531 59.8238 149.27 59.9606C148.682 60.6412 148.808 64.0863 149.976 66.5398C152.404 71.5814 179.301 115.023 184.309 120.182C184.649 119.856 185.012 119.553 185.392 119.274C187.073 117.19 190.434 106.981 192.333 91.0585C194.064 76.5977 193.535 66.4642 192.535 62.9099C184.922 61.137 164.815 59.5069 154.782 59.5069Z" fill="#191919"/>
  <path d="M20.8033 56.9777C12.3084 59.801 19.1228 118.779 27.6514 124.635C30.4411 126.551 29.021 130.13 27.6514 131.853C22.0133 138.928 10.0061 169.253 11.6278 171.832C15.7282 178.369 27.4582 178.084 30.189 177.101C32.0796 176.42 34.7348 175.622 36.0708 176.672C39.4906 179.395 56.3462 178.227 58.1527 172.815C58.993 170.379 41.3476 135.642 35.6759 129.71C34.1046 128.072 35.3482 126.862 37.0455 125.417C42.3139 120.93 71.0338 73.9425 73.2269 69.4471C75.42 64.9518 77.0669 54.3225 67.9501 53.0622C60.5138 52.0286 29.0126 54.2469 20.8033 56.9777Z" fill="#448AFF"/>
  <path d="M27.0127 124.097C24.8196 124.635 25.0381 129.618 27.0127 131.954C28.9873 134.29 35.9782 134.08 37.3562 131.609C38.7342 129.139 40.1627 126.45 37.8268 124.501C36.7176 123.576 34.7682 124.921 32.6676 124.929C30.3233 124.938 28.1722 123.82 27.0127 124.097Z" fill="white"/>
  <path d="M196.299 56.9778C204.794 59.801 197.98 118.779 189.451 124.635C186.661 126.551 188.081 130.13 189.451 131.853C195.089 138.928 206.71 169.051 205.475 171.832C203.29 176.756 197.467 177.143 194.551 176.513C192.518 176.076 190.661 174.891 188.67 176.084C183.989 178.907 160.773 178.218 158.966 172.807C158.126 170.37 175.772 135.634 181.443 129.702C183.015 128.063 181.771 126.853 180.074 125.408C174.797 120.921 146.069 73.9173 143.943 69.4304C141.817 64.9434 140.103 54.3058 149.219 53.0454C156.589 52.0287 188.09 54.2469 196.299 56.9778Z" fill="#448AFF"/>
  <path d="M190.081 124.097C192.274 124.635 192.056 129.618 190.081 131.954C188.107 134.29 181.418 133.592 179.738 131.609C177.914 129.45 176.965 125.727 179.267 124.501C181.065 123.518 181.897 125.223 184.426 124.929C186.955 124.635 188.93 123.82 190.081 124.097Z" fill="white"/>
  <path d="M94.2333 88.6974C90.4689 91.0837 91.5948 139.852 93.7711 142.726C95.9474 145.6 137.086 119.703 137.086 115.115C137.086 110.527 97.9724 86.3111 94.2333 88.6974Z" fill="#448AFF"/>
</svg>
