<svg width="216" height="216" viewBox="0 0 216 216" fill="none" xmlns="http://www.w3.org/2000/svg">
  <path d="M25.5932 48.0001C41.0707 36.9759 183.099 36.7911 193.191 50.8401C203.282 64.8892 204.534 159.998 188.334 167.728C172.134 175.458 38.4407 180.408 25.5932 166.476C12.7457 152.545 9.17463 59.7636 25.5932 48.0001Z" fill="#191919"/>
  <path d="M95.3932 182.029C30.7776 182.029 23.2237 173.837 20.6105 171.055C15.3337 165.333 11.5441 152.066 9.36788 131.622C7.4605 113.75 7.30925 93.5755 8.95615 77.6527C10.9139 58.7217 15.0648 47.2438 21.6524 42.5468L25.5932 48.0001L21.6944 42.5216C24.7277 40.3621 31.6094 37.2448 56.313 35.1189C71.9501 33.7745 91.5365 33.1191 111.467 33.2956C132.003 33.4972 151.245 34.556 165.714 36.2365C190.082 39.1438 196.022 43.261 198.644 46.9161C204.996 55.764 206.736 80.9465 207.206 95.1636C207.979 118.624 206.299 141 202.694 155.007C200.039 165.359 196.392 171.324 191.216 173.786C180.032 179.122 133.995 181.575 105.779 181.928C102.171 181.996 98.7095 182.029 95.3932 182.029ZM29.492 53.5037C29.2903 53.6466 24.6269 57.2177 22.3666 79.0391C20.8122 94.0797 20.9634 113.204 22.7784 130.194C24.9966 151.024 28.6601 159.947 30.5339 161.93C33.8949 164.913 57.0188 169.19 106.72 168.501C149.842 167.905 180.015 164.182 185.376 161.712C185.654 161.485 188.67 158.779 191.115 144.907C193.636 130.816 194.535 110.666 193.586 91.0043C192.544 69.4434 189.645 57.7974 187.855 54.9574C183.914 51.8736 159.345 46.9917 109.031 46.7229C61.6738 46.4792 33.5672 50.6048 29.492 53.4449V53.5037Z" fill="#191919"/>
  <path d="M25.5932 48.0001C41.0707 36.9759 183.099 36.7911 193.191 50.8401C203.282 64.8892 204.534 159.998 188.334 167.728C172.134 175.458 38.4407 180.408 25.5932 166.476C12.7457 152.545 9.17463 59.7636 25.5932 48.0001Z" fill="#448AFF"/>
  <path d="M70.9669 80.5851C65.438 86.8618 65.0851 129.555 72.2189 135.832C75.7395 138.932 126.273 138.706 128.768 135.832C131.264 132.958 131.44 119.153 134.297 122.018C137.154 124.883 146.061 132.605 148.749 134.572C151.438 136.538 154.631 137.344 155.707 130.984C156.774 124.883 156.421 84.5259 155.883 80.2154C155.396 76.2914 150.707 76.6275 147.674 79.5012C144.64 82.3749 135.717 90.0884 133.583 92.0546C131.448 94.0208 131.617 82.19 128.592 79.6776C125.567 77.1653 75.6051 75.3251 70.9669 80.5851Z" fill="white"/>
</svg>
