<svg width="216" height="216" viewBox="0 0 216 216" fill="none" xmlns="http://www.w3.org/2000/svg">
  <g clip-path="url(#clip0)">
    <path d="M109.029 119.581L37.3383 80.2406C37.0441 80.0775 36.7125 79.9937 36.3761 79.9973C36.0397 80.001 35.71 80.092 35.4194 80.2614C35.1288 80.4309 34.8872 80.673 34.7184 80.9639C34.5495 81.2549 34.4592 81.5848 34.4562 81.9212C34.1117 97.0458 32.7757 160.527 34.5318 162.586C37.3131 165.846 106.021 205.573 109.037 205.573C112.054 205.573 180.064 164.602 183.543 162.586C186.618 160.813 184.265 96.8777 183.669 81.8539C183.654 81.5235 183.555 81.2024 183.381 80.9207C183.208 80.6391 182.966 80.4062 182.677 80.244C182.389 80.0818 182.064 79.9956 181.734 79.9936C181.403 79.9915 181.077 80.0736 180.787 80.2322L109.029 119.581Z" fill="#191919"/>
    <path d="M109.029 212.27C106.953 212.27 104.987 212.27 68.3268 191.096C32.263 170.266 30.1876 167.837 29.4062 166.921C27.4063 164.569 26.6501 163.686 26.9778 127.051C27.1375 109.011 27.5576 89.349 27.734 81.7363C27.7675 80.2474 28.1842 78.7923 28.944 77.5114C29.7037 76.2305 30.7809 75.1671 32.0715 74.4238C33.362 73.6806 34.8224 73.2826 36.3116 73.2682C37.8008 73.2539 39.2685 73.6238 40.5731 74.3421L109.037 111.91L177.552 74.3168C178.849 73.6064 180.306 73.2397 181.785 73.2514C183.264 73.2632 184.716 73.6531 186.002 74.384C187.288 75.1149 188.365 76.1626 189.132 77.4274C189.899 78.6922 190.329 80.1321 190.382 81.6103C190.685 89.2482 191.416 108.977 191.702 127.11C191.861 137.395 191.844 145.596 191.702 151.57C191.382 161.787 190.861 166.165 186.946 168.434C186.383 168.762 184.089 170.114 180.644 172.19C113.407 212.27 111.852 212.27 109.029 212.27ZM40.7412 158.838C50.7655 165.661 98.013 192.961 109.02 198.33C115.742 194.969 137.497 182.281 173.72 160.636L177.854 158.166C178.694 150.469 178.501 123.917 177.258 89.8532L112.264 125.472C111.272 126.016 110.16 126.301 109.029 126.301C107.898 126.301 106.785 126.016 105.794 125.472L41.0017 89.9204C40.2623 124.993 40.153 151.259 40.7412 158.838Z" fill="#191919"/>
    <path d="M34.5232 76.9804L109.029 37.2448L183.534 76.9804L109.029 117.859L34.5232 76.9804Z" fill="white"/>
    <path d="M109.365 34.556V115.17L34.8594 74.2833L109.365 34.556Z" fill="#E6E6E6"/>
    <path d="M109.029 119.581L34.5233 78.6946C34.5233 78.6946 32.5235 160.199 34.5233 162.56C37.3046 165.821 106.012 205.548 109.029 205.548C112.045 205.548 180.056 164.577 183.534 162.56C187.013 160.544 183.534 78.6946 183.534 78.6946L109.029 119.581Z" fill="#448AFF"/>
    <path d="M109.029 119.581C108.189 121.312 107.348 205.968 109.029 205.548C114.364 204.237 180.719 166.115 183.812 162.065C185.139 160.309 185.82 79.7785 183.551 78.6946C181.282 77.6107 109.894 117.851 109.029 119.581Z" fill="#2F72E2"/>
    <path d="M183.097 74.048C186.954 71.9221 207.851 60.3266 206.75 59.688C205.65 59.0494 133.085 21.0867 131.253 20.5321C129.573 20.0195 110.684 32.3797 107.617 34.3963C104.458 32.2032 81.7204 16.5493 79.1324 17.9945C76.3512 19.507 9.0635 57.0496 6.65197 58.4444C4.43369 59.7636 29.1624 72.191 32.9856 74.1068C29.4145 75.9133 8.03839 86.3661 9.35759 87.1223C10.6768 87.8786 79.7878 128.665 83.4849 129.068C85.8629 129.328 105.164 117.103 107.701 115.422C110.541 117.304 133.749 132.631 136.068 131.32L209.28 89.307C210.632 88.5676 187.5 76.3335 183.097 74.048ZM107.701 115.103L33.9687 74.09L107.567 34.8332L181.77 73.9724L107.701 115.103Z" fill="#191919"/>
    <path d="M135.808 138.168C132.447 138.168 127.851 135.916 118.608 130.328C114.583 127.892 110.508 125.287 107.684 123.438C105.273 124.951 102.105 126.917 99.0046 128.757C87.7368 135.387 85.2748 136.025 82.754 135.756C80.603 135.521 77.931 135.235 7.6604 93.9284L5.97989 92.9453C4.9102 92.3285 4.02794 91.433 3.42715 90.3543C2.82637 89.2755 2.52959 88.054 2.56845 86.8198C2.71129 82.1816 6.44203 80.207 14.6177 75.8965C15.7773 75.2831 16.9872 74.6529 18.1888 74.0395L15.1807 72.3674C3.19864 65.847 -0.0699536 63.4271 -0.204395 58.8729C-0.240662 57.6114 0.0660818 56.3636 0.683139 55.2627C1.3002 54.1618 2.20444 53.2489 3.29947 52.6214C5.14803 51.5543 42.6066 30.6487 73.7045 13.2975L75.864 12.0959C80.1997 9.67596 85.1068 11.827 96.7359 19.1036C100.778 21.6244 104.811 24.3132 107.71 26.2794C128.632 12.6673 130.22 13.1546 133.228 14.0789C136.102 14.9191 209.523 53.4953 210.12 53.8482C211.152 54.4536 212.007 55.3177 212.603 56.3551C213.198 57.3926 213.512 58.5675 213.515 59.7636C213.473 64.3262 210.557 66.0151 199.726 72.3086L197.029 73.8715L201.037 76.0814C213.078 82.8034 215.926 84.5427 216.01 89.1137C216.034 90.3359 215.729 91.5419 215.127 92.606C214.526 93.6701 213.65 94.5534 212.59 95.1636L146.084 133.294L139.362 137.143C138.291 137.798 137.063 138.152 135.808 138.168ZM120.473 115.683C126.817 119.665 132.237 122.816 135.068 124.152L139.446 121.632L196.499 88.9205C192.878 86.8786 188.147 84.2906 182.467 81.2741L120.473 115.683ZM22.4069 86.9879C59.5882 108.776 78.015 119.094 83.6951 121.892C86.1403 120.699 90.5432 118.145 94.7697 115.582L33.347 81.4422C28.7172 83.7529 25.1461 85.5678 22.4069 86.9879ZM48.0263 74.216L107.684 107.389L167.62 74.132L107.558 42.4543L48.0263 74.216ZM19.0795 59.1922C22.9278 61.3517 27.9442 64.0153 33.3638 66.7545L94.9378 33.9173C90.1818 30.6988 85.2503 27.7477 80.1661 25.0778C46.0265 44.1264 28.2046 54.0835 19.0711 59.1922H19.0795ZM120.498 34.0602L182.408 66.7125C186.61 64.3766 190.458 62.1835 193.617 60.335C176.022 51.0922 140.446 32.6065 130.943 27.8087C128.741 28.9934 124.994 31.1949 120.498 34.0602Z" fill="#191919"/>
    <path d="M183.937 74.048C184.005 72.9556 207.851 60.3266 206.75 59.688C205.65 59.0494 133.085 21.0867 131.253 20.5321C129.573 20.0195 108.113 34.3375 107.617 34.3963C107.121 34.4551 81.712 16.5157 79.1324 17.9609C76.3511 19.507 9.06345 57.0496 6.65192 58.4444C4.43365 59.7636 32.9267 73.401 32.9855 74.1068C33.0443 74.8126 8.03834 86.3661 9.34914 87.1224C10.6599 87.8786 79.7878 128.665 83.4849 129.068C85.8628 129.328 106.945 115.422 107.701 115.422C108.457 115.422 133.749 132.631 136.068 131.32L209.28 89.307C210.632 88.5676 183.87 75.1151 183.937 74.048ZM107.701 115.103C106.861 115.036 33.9938 74.653 33.977 74.1152C33.9602 73.5774 107.079 34.9341 107.575 34.8585C108.071 34.7828 181.786 72.9472 181.778 73.9976C181.77 75.0479 108.55 115.145 107.701 115.078V115.103Z" fill="white"/>
    <path d="M61.0333 157.805L60.6636 127.824C60.6636 125.951 62.3861 125.556 63.7809 127.135L85.157 151.351C86.493 152.872 86.5182 155.107 85.2074 155.46L64.201 161.182C62.8314 161.594 61.0585 159.678 61.0333 157.805Z" fill="white"/>
    <path d="M108.525 119.985C107.962 134.412 107.684 185.247 109.037 205.548L108.525 119.985Z" fill="#D32920"/>
    <path d="M109.029 208.909C108.175 208.911 107.353 208.588 106.729 208.006C106.105 207.424 105.725 206.626 105.668 205.775C104.29 185.037 104.601 134.168 105.155 119.859C105.172 119.417 105.276 118.984 105.461 118.582C105.646 118.181 105.908 117.82 106.232 117.52C106.556 117.22 106.936 116.987 107.35 116.834C107.765 116.681 108.205 116.611 108.647 116.628C109.088 116.645 109.522 116.749 109.923 116.934C110.324 117.118 110.685 117.38 110.985 117.704C111.285 118.029 111.518 118.409 111.671 118.823C111.824 119.237 111.894 119.678 111.877 120.119C111.34 133.933 111.037 185.18 112.381 205.33C112.411 205.77 112.354 206.213 112.212 206.631C112.071 207.05 111.848 207.437 111.557 207.769C111.266 208.102 110.912 208.373 110.516 208.569C110.119 208.765 109.688 208.88 109.247 208.909H109.029Z" fill="#191919"/>
  </g>
  <defs>
  <clipPath id="clip0">
    <rect width="215.105" height="215.105" fill="white" transform="translate(0.408936 0.105469)"/>
  </clipPath>
  </defs>
</svg>
