<svg width="217" height="216" viewBox="0 0 217 216" fill="none" xmlns="http://www.w3.org/2000/svg">
  <path d="M174.661 107.023C170.031 89.6469 161.141 75.623 157.091 70.5815C149.008 60.5908 151.05 51.869 153.73 47.3148C156.411 42.7606 166.628 37.7527 167.586 33.4926C168.544 29.2325 144.176 13.3265 140.605 15.7464C137.034 18.1663 137.555 31.8037 134.32 35.6352C119.759 52.8857 109.323 44.1218 86.5181 46.9955C63.7136 49.8692 44.2196 59.0784 29.5572 81.2443C15.3401 102.746 15.2728 127.005 21.6924 147.062C27.4397 164.993 40.5897 180.798 58.7141 191.267C69.9481 197.622 82.6531 200.916 95.5593 200.821C124.926 200.821 152.747 185.739 168.166 161.615C178.014 146.204 180.198 127.786 174.661 107.023Z" fill="#191919"/>
  <path d="M95.5677 207.543C81.4778 207.639 67.61 204.032 55.3531 197.082C35.8255 185.806 21.6 168.765 15.2897 149.112C10.5758 134.441 5.42507 105.544 23.9527 77.5388C38.4471 55.6249 58.0671 43.7941 85.6779 40.3323C92.1934 39.5876 98.7626 39.4301 105.306 39.8617C116.288 40.3323 121.33 40.5591 129.094 31.4592C129.657 30.3584 130.262 26.8125 130.632 24.6783C131.657 18.7041 132.623 13.0576 136.883 10.1923C140.857 7.52868 145.731 9.16718 149.966 11.1334C153.847 12.9882 157.573 15.1518 161.108 17.6033C168.746 22.8381 175.619 28.5267 174.174 35.005C173.132 39.6432 168.981 42.853 164.67 46.214C162.99 47.5332 160.133 49.7431 159.545 50.7346C158.293 52.8437 156.049 58.5826 162.318 66.3298C167.006 72.1191 176.241 86.832 181.156 105.259C187.206 127.946 184.744 148.112 173.838 165.203C157.158 191.335 127.17 207.543 95.5677 207.543ZM97.2482 53.0789C93.9565 53.0672 90.6673 53.2636 87.4004 53.6671C63.9489 56.608 47.337 66.5566 35.1701 84.9498C19.743 108.275 24.1124 132.592 28.0952 145.003C33.372 161.472 45.4464 175.832 62.0751 185.436C72.288 191.207 83.8375 194.194 95.5677 194.099C122.632 194.099 148.285 180.268 162.511 157.968C171.308 144.205 173.207 127.643 168.166 108.729C163.67 91.8483 154.873 78.4799 151.865 74.7911C139.942 60.0783 145.891 47.4072 147.974 43.8781C149.857 40.7188 153.176 38.1392 156.377 35.6352C157.217 34.963 158.427 34.0387 159.427 33.1901C154.849 29.352 149.845 26.0534 144.513 23.3591C144.261 24.5775 144.034 25.8799 143.866 26.9218C143.025 31.9633 142.185 36.7612 139.463 39.9793C127.363 54.2637 116.356 53.7931 104.71 53.289C102.382 53.1798 99.8782 53.0789 97.2062 53.0789H97.2482Z" fill="#191919"/>
  <path d="M174.661 107.023C170.031 89.6469 161.141 75.623 157.091 70.5815C149.008 60.5908 151.05 51.869 153.73 47.3148C156.411 42.7606 166.628 37.7527 167.586 33.4926C168.544 29.2325 144.176 13.3265 140.605 15.7464C137.034 18.1663 137.555 31.8037 134.32 35.6352C119.759 52.8857 109.323 44.1218 86.5181 46.9955C63.7136 49.8692 44.2196 59.0784 29.5572 81.2443C15.3401 102.746 15.2728 127.005 21.6924 147.062C27.4397 164.993 40.5897 180.798 58.7141 191.267C69.9481 197.622 82.6531 200.916 95.5593 200.821C124.926 200.821 152.747 185.739 168.166 161.615C178.014 146.204 180.198 127.786 174.661 107.023Z" fill="white"/>
  <path d="M75.6033 133.021L87.9886 84.2272C88.7869 81.1519 92.1899 79.5218 95.7862 82.6643C99.3825 85.8069 129.195 117.115 129.195 117.115C129.678 117.617 130.024 118.235 130.2 118.909C130.376 119.583 130.376 120.29 130.201 120.965C130.026 121.639 129.681 122.257 129.198 122.76C128.716 123.263 128.113 123.633 127.447 123.837L80.754 137.945C80.0598 138.16 79.3206 138.186 78.613 138.02C77.9054 137.853 77.2551 137.501 76.7297 136.999C76.2042 136.496 75.8227 135.863 75.6246 135.163C75.4266 134.464 75.4192 133.724 75.6033 133.021Z" fill="#191919"/>
  <path d="M157.074 109.032C152.638 108.385 145.311 112.788 141.672 112.989C138.034 113.191 129.304 109.628 125.565 109.628C121.826 109.628 114.398 112.914 111.911 112.939C109.423 112.964 102.777 111.317 98.6598 111.317C94.5425 111.317 89.6691 112.998 85.5854 112.947C81.5018 112.897 76.956 109.477 71.7212 109.519C66.4864 109.561 63.1086 112.443 57.0756 112.594C51.0425 112.745 45.564 109.872 41.304 108.779C37.0439 107.687 29.7168 106.133 30.2546 128.534C30.7924 150.935 54.4203 189.873 99.2648 189.032C145.353 188.116 166.905 145.339 166.905 128.761C166.905 112.183 161.519 109.679 157.074 109.032Z" fill="#448AFF"/>
  <g opacity="0.2">
    <path opacity="0.2" d="M125.842 120.451C123.657 117.157 117.288 111.62 117.288 111.62C115.509 112.174 113.684 112.568 111.835 112.796C109.499 112.989 102.147 111.174 98.6346 111.115C95.1224 111.057 87.2072 113.166 84.9217 112.846C82.8289 112.444 80.7698 111.882 78.7626 111.166L73.3766 136.037C72.5951 139.045 75.6285 141.692 80.796 140.642C85.9636 139.592 124.128 127.038 124.128 127.038C126.968 126.173 128.027 123.736 125.842 120.451Z" fill="#191919"/>
  </g>
  <path d="M67.436 87.4874C66.4995 86.2699 65.1623 85.423 63.6613 85.097C62.1603 84.771 60.5923 84.9867 59.2351 85.7061C56.5042 87.2017 55.8741 90.6552 57.8823 93.386C59.8905 96.1168 63.554 96.9319 66.0832 95.201C66.6866 94.7901 67.2016 94.2623 67.5976 93.649C67.9937 93.0356 68.2627 92.3491 68.3888 91.6299C68.5149 90.9108 68.4956 90.1737 68.3319 89.4622C68.1683 88.7507 67.8636 88.0792 67.436 87.4874Z" fill="#448AFF"/>
  <path d="M144.614 90.9745C143.956 90.1132 143.015 89.5124 141.957 89.2786C140.898 89.0449 139.792 89.1932 138.833 89.6973C136.908 90.7476 136.48 93.1928 137.883 95.117C138.499 96.0311 139.442 96.6735 140.518 96.9112C141.594 97.1489 142.721 96.9638 143.664 96.3941C144.087 96.1044 144.447 95.7331 144.725 95.302C145.002 94.871 145.19 94.3889 145.279 93.884C145.367 93.3792 145.354 92.8618 145.24 92.3621C145.125 91.8625 144.913 91.3907 144.614 90.9745Z" fill="#448AFF"/>
  <path d="M94.5594 170.454C93.8483 169.811 92.9324 169.441 91.9743 169.408C91.0161 169.376 90.0774 169.684 89.3246 170.278C88.9713 170.579 88.6884 170.954 88.496 171.376C88.3035 171.798 88.2063 172.258 88.2111 172.722C88.2159 173.186 88.3227 173.644 88.5238 174.062C88.7249 174.48 89.0155 174.849 89.375 175.143C90.0581 175.839 90.9826 176.245 91.9571 176.278C92.9316 176.311 93.8814 175.967 94.6098 175.319C94.9305 174.999 95.184 174.618 95.3554 174.198C95.5268 173.779 95.6126 173.329 95.6079 172.876C95.6032 172.423 95.5081 171.975 95.328 171.559C95.1479 171.144 94.8866 170.768 94.5594 170.454Z" fill="white"/>
  <path d="M109.171 155.279C107.157 155.442 105.266 156.313 103.833 157.737C102.399 159.161 101.516 161.047 101.34 163.06C101.055 167.135 104.449 170.261 108.903 170.009C113.356 169.757 116.86 166.253 116.734 162.228C116.705 161.272 116.485 160.331 116.087 159.46C115.689 158.59 115.121 157.808 114.416 157.161C113.712 156.513 112.885 156.013 111.984 155.69C111.083 155.367 110.127 155.227 109.171 155.279Z" fill="white"/>
  <path d="M48.8244 120.308C47.6794 120.268 46.5383 120.461 45.4702 120.875C44.4021 121.289 43.4292 121.916 42.6106 122.717C41.7919 123.519 41.1445 124.478 40.7076 125.537C40.2707 126.596 40.0534 127.733 40.0689 128.878C40.1571 131.281 41.1659 133.558 42.8863 135.238C44.6068 136.918 46.9073 137.872 49.3117 137.903H50.4376C55.4792 138.012 59.1679 134.147 58.6301 129.315C58.2899 126.911 57.1266 124.7 55.3386 123.057C53.5506 121.415 51.2485 120.443 48.8244 120.308Z" fill="white"/>
  <path d="M147.512 7.10856C144.151 10.4108 144.378 19.0654 142.269 25.7706C140.16 32.4759 151.588 39.8533 155.537 37.2401C159.486 34.6269 169.947 27.0394 172.199 22.9558C174.451 18.8721 150.84 3.81476 147.512 7.10856Z" fill="#448AFF"/>
</svg>
