<svg width="216" height="216" viewBox="0 0 216 216" fill="none" xmlns="http://www.w3.org/2000/svg">
  <path d="M126.328 59.2212C121.69 58.9523 119.127 53.5159 119.127 53.5159C116.489 48.8945 112.901 47.2308 108.271 49.8692L91.5582 59.4061C86.9368 62.0445 85.4831 64.2712 86.9788 69.8168C86.9788 69.8168 89.4995 75.0348 88.945 78.6311C88.3904 82.2274 69.7451 97.4024 70.7703 128.559C71.7113 157.178 84.6177 170.698 108.229 181.336C134.646 193.242 173.063 185.696 192.254 149.406C212.32 111.51 191.473 80.4545 164.316 66.3046C144.318 55.8182 130.966 59.4901 126.328 59.2212Z" fill="#191919"/>
  <path d="M133.294 193.259C123.706 193.283 114.222 191.279 105.464 187.377C76.9965 174.555 64.9976 157.548 64.0482 128.694C63.2079 102.267 75.0975 86.4371 80.8533 78.8328C81.349 78.1774 81.9204 77.4211 82.3153 76.8582C82.0485 75.4287 81.5995 74.0394 80.9793 72.7241C80.7896 72.3363 80.6376 71.9311 80.5256 71.5141C77.7107 61.0782 83.1808 56.3895 88.2643 53.5075L104.985 43.9706C112.665 39.5844 120.337 41.9455 125.009 50.1212C125.094 50.2618 125.17 50.4077 125.236 50.5582C125.619 51.3053 126.168 51.9548 126.84 52.4571C127.311 52.4571 128.37 52.3899 129.311 52.3227C135.848 51.8437 149.477 50.8438 167.484 60.2379C185.49 69.632 199.044 84.8826 204.371 101.982C209.362 118.014 207.253 135.466 198.262 152.448C183.112 181.058 157.359 193.259 133.294 193.259ZM93.3227 67.5397C94.3478 69.8 96.3476 74.9928 95.5577 79.7402C95.1544 82.177 93.7176 84.0844 91.5413 86.9748C86.3737 93.8397 76.7528 106.62 77.467 128.307C78.2401 151.834 87.3232 164.522 110.968 175.176C134.495 185.764 168.862 179.201 186.331 146.204C193.708 132.265 195.447 118.745 191.481 106.032C187.213 92.3357 176.189 79.9839 161.232 72.2199C146.586 64.5904 136.361 65.3383 130.252 65.792C128.814 65.932 127.369 65.9797 125.925 65.9348C118.169 65.4811 114.111 58.4902 113.195 56.692C112.932 56.2165 112.607 55.7785 112.228 55.3896C112.008 55.4727 111.794 55.5738 111.59 55.6921L94.8687 65.229C94.2625 65.5625 93.6862 65.9477 93.1462 66.3802C93.1754 66.7706 93.2344 67.1583 93.3227 67.5397Z" fill="#191919"/>
  <path d="M63.7036 55.8938C62.0735 66.9684 52.9904 67.1449 50.9485 67.0188C43.4871 66.5567 38.4287 62.3218 43.9408 58.9944C44.3021 58.7759 44.3105 58.5995 43.5291 58.5826C-11.2304 57.4987 -3.30676 45.3738 43.3442 41.3994C43.7139 41.3994 43.7475 41.2902 43.6131 41.0717C31.7907 21.7458 32.3621 9.77219 54.8977 32.6692C55.0574 32.8288 55.2674 32.7952 55.3179 32.5935C59.015 17.4941 67.7032 41.3238 65.7286 47.8946C64.8591 50.5079 64.1822 53.1815 63.7036 55.8938Z" fill="#448AFF"/>
  <path d="M97.8684 66.5734C96.5996 54.1376 89.9027 45.0377 76.5175 52.3815C62.1239 60.3051 51.8896 54.3645 54.444 48.8776C57.4353 42.4413 60.1577 51.9614 72.5431 45.1469C101.372 29.2997 111.808 69.3043 102.397 70.2621C101.858 70.3179 101.312 70.2667 100.792 70.1115C100.273 69.9562 99.7884 69.6999 99.3677 69.3573C98.947 69.0146 98.598 68.5924 98.3408 68.1147C98.0835 67.637 97.923 67.1132 97.8684 66.5734Z" fill="#191919"/>
  <path d="M126.328 59.2212C121.69 58.9523 119.127 53.5159 119.127 53.5159C116.489 48.8945 112.901 47.2308 108.271 49.8692L91.5582 59.4061C86.9368 62.0445 85.4831 64.2712 86.9788 69.8168C86.9788 69.8168 89.4995 75.0348 88.945 78.6311C88.3904 82.2274 69.7451 97.4024 70.7703 128.559C71.7113 157.178 84.6177 170.698 108.229 181.336C134.646 193.242 173.063 185.696 192.254 149.406C212.32 111.51 191.473 80.4545 164.316 66.3046C144.318 55.8182 130.966 59.4901 126.328 59.2212Z" fill="#448AFF"/>
  <path d="M118.001 97.0327C114.464 99.7299 119.682 148.246 122.127 150.927C124.572 153.607 163.299 124.316 162.921 119.72C162.543 115.123 121.538 94.3355 118.001 97.0327Z" fill="white"/>
</svg>
