<svg width="216" height="216" viewBox="0 0 216 216" fill="none" xmlns="http://www.w3.org/2000/svg">
  <path d="M113.995 179.618C112.381 161.325 98.7188 160.653 96.6265 157.905C94.5343 155.158 98.1054 36.6482 95.5846 35.5811C93.0638 34.514 75.6117 40.3537 74.8975 63.6792C74.1833 87.0047 73.217 124.833 75.5025 130.9C77.788 136.966 79.645 147.99 78.351 157.233C77.057 166.476 73.696 172.98 73.217 181.601C72.7717 189.793 78.4098 199.246 91.4338 200.792C102.928 202.103 115.045 191.129 113.995 179.618ZM103.912 179.618C103.735 184.449 97.9793 190.138 92.6941 189.886C85.3671 189.541 83.7202 183.743 83.3169 179.332C82.9136 174.921 88.1904 168.241 93.652 168.652C99.5338 169.056 104.122 173.274 103.912 179.584V179.618Z" fill="#191919"/>
  <path d="M93.3243 207.598C92.4314 207.599 91.5393 207.549 90.6522 207.447C73.9564 205.506 65.8647 192.776 66.5033 181.214C66.8058 175.736 68.083 171.131 69.3266 166.653C70.3483 163.257 71.1372 159.795 71.6877 156.292C72.7716 148.553 71.2171 138.647 69.1669 133.303C67.4108 128.623 66.5621 114.96 68.1418 63.4776C68.7048 44.9919 78.2249 36.1777 83.9134 32.5478C85.93 31.2538 92.9293 27.1953 98.1977 29.3968C102.601 31.2538 102.786 35.6483 103.012 41.2192C103.155 44.7147 103.231 49.6218 103.256 56.2598C103.256 68.4435 103.122 84.568 102.954 100.172C102.735 120.674 102.475 145.596 102.878 153.813C107.919 156.133 119.154 161.544 120.7 179.021C121.347 186.306 118.355 193.751 112.507 199.439C107.404 204.531 100.531 207.454 93.3243 207.598ZM90.0136 178.811C90.4254 183.012 91.6185 183.08 93.005 183.138C94.3914 183.197 97.0634 180.618 97.2062 179.324C97.3239 175.963 94.4166 175.408 93.1646 175.316C92.1899 175.383 90.2069 177.593 90.0221 178.811H90.0136ZM89.6859 44.9583C89.0412 45.4771 88.4321 46.0385 87.8626 46.6388C83.9554 50.7981 81.838 56.5959 81.6111 63.8809C80.1406 112.103 80.9053 125.715 81.8128 128.639C84.3335 135.445 86.4762 147.629 85.0057 158.149C84.6481 160.627 84.16 163.084 83.5437 165.51C85.7709 163.669 88.4527 162.461 91.3076 162.014C89.1818 159.225 88.9045 158.863 89.5263 100.054C89.7027 81.2574 89.9632 57.1672 89.6859 44.9583Z" fill="#191919"/>
  <path d="M113.994 179.618C112.381 161.325 98.7185 160.653 96.6263 157.905C94.5341 155.158 98.1051 36.6482 95.5844 35.5811C93.0636 34.514 75.6115 40.3537 74.8973 63.6792C74.1831 87.0047 73.2168 124.833 75.5023 130.9C77.7878 136.966 79.6447 147.99 78.3507 157.233C77.0567 166.476 73.6957 172.98 73.2168 181.601C72.7714 189.793 78.4096 199.246 91.4335 200.792C102.928 202.103 115.045 191.129 113.994 179.618ZM103.911 179.618C103.735 184.449 97.9791 190.138 92.6939 189.886C85.3669 189.541 83.72 183.743 83.3166 179.332C82.9133 174.921 88.1901 168.241 93.6518 168.652C99.5336 169.056 104.121 173.274 103.911 179.584V179.618Z" fill="white"/>
  <path d="M100.945 14.9864C115.23 15.7342 199.054 81.98 198.466 94.9535C197.877 107.927 154.344 164.401 141.194 161.334C128.044 158.267 46.9002 98.7851 45.7995 84.6016C44.6988 70.4181 85.8125 14.1965 100.945 14.9864Z" fill="#191919"/>
  <path d="M142.303 168.215C141.421 168.217 140.541 168.119 139.681 167.921C129.598 165.602 99.4245 143.73 84.8629 132.488C40.0857 97.9112 39.3378 88.2903 39.0942 85.1226C38.5816 78.9299 42.64 69.0064 51.0594 55.6884C58.3411 44.1649 66.7424 33.3882 76.141 23.515C82.737 16.7509 92.5008 7.81063 101.298 8.27277C104.542 8.44082 110.272 9.95328 125.985 20.364C135.883 26.9096 147.815 35.7155 159.486 45.16C205.792 82.4505 205.322 92.0967 205.179 95.2644C204.557 108.877 174.543 148.301 156.629 161.905C151.025 166.165 146.395 168.215 142.303 168.215ZM52.4962 83.9126C53.7398 87.6349 65.8143 100.928 94.509 122.942C118.876 141.63 137.942 153.385 142.404 154.746C145.168 154.242 155.26 147.377 170.586 128.362C185.5 109.876 191.021 98.1129 191.676 95.0544C190.046 90.9707 177.585 76.8628 149.579 54.4448C122.868 33.0687 104.617 22.305 100.567 21.6748C99.0716 21.7757 93.005 24.6746 81.922 36.9675C74.0944 45.7471 67.0645 55.2066 60.9156 65.2337C54.0339 76.636 52.5215 82.3917 52.4962 83.9126Z" fill="#191919"/>
  <path d="M100.945 14.9864C115.23 15.7342 199.053 81.98 198.465 94.9535C197.877 107.927 154.343 164.401 141.193 161.334C128.043 158.267 46.9 98.7851 45.7993 84.6016C44.6985 70.4181 85.8122 14.1965 100.945 14.9864Z" fill="#448AFF"/>
  <path d="M115.591 63.3431C111.608 67.3511 106.146 67.8216 101.13 63.3431C96.9288 59.6039 97.1052 52.8819 101.13 48.8823C105.155 44.8827 110.297 44.4037 115.591 48.8823C119.927 52.5458 119.574 59.3351 115.591 63.3431Z" fill="white"/>
  <path d="M168.468 109.515C163.704 112.548 158.276 111.817 154.344 106.389C151.033 101.81 152.705 95.3064 157.469 92.2647C162.234 89.223 167.393 89.9036 171.594 95.3905C175.056 99.9279 173.224 106.482 168.468 109.515Z" fill="white"/>
  <path d="M87.8792 87.9122C86.266 88.0382 80.1909 97.6171 81.0816 98.6254C81.9723 99.6337 140.336 131.479 141.278 131.547C142.219 131.614 146.563 125.438 145.412 124.455C144.26 123.472 89.2153 87.8029 87.8792 87.9122Z" fill="white"/>
  <path d="M20.4825 160.939C28.4061 171.392 39.4302 171.442 46.2615 166.888C53.4457 162.107 57.3361 155.906 64.6463 150.083C71.9565 144.26 80.3003 142.899 88.6608 139.588C101.71 134.479 127.573 118.834 146.983 105.566C166.25 92.3908 162.864 75.1067 160.679 73.4766C158.494 71.8465 58.1679 135.093 54.8069 134.681C51.4459 134.269 43.8836 122.85 27.2885 130.74C16.8105 135.74 13.4915 151.721 20.4825 160.939ZM47.0513 142.714C50.1771 147.217 47.1018 155.149 43.0937 157.04C39.0857 158.931 33.0107 159.989 28.8094 153.679C25.8937 149.259 28.2884 142.008 32.3637 139.395C37.7413 136.042 43.6903 137.907 47.0513 142.714Z" fill="#191919"/>
  <path d="M36.6321 176.484C29.1874 176.484 21.2638 173.123 15.13 164.997C10.5001 158.889 8.92886 150.335 10.9287 142.117C12.8613 134.185 17.76 127.833 24.3728 124.69C40.2284 117.128 50.5803 124.068 55.1513 127.211C62.4363 123.388 83.7788 110.507 101.365 99.911C114.667 91.8866 128.489 83.5512 138.984 77.409C144.706 74.048 148.983 71.628 152.066 69.9811C156.982 67.3511 160.855 65.2673 164.67 68.1242C168.829 71.2163 169.14 78.1064 169.09 80.9297C168.981 86.3241 166.981 100.062 150.756 111.179C132.01 123.993 105.382 140.336 91.0975 145.915C88.5767 146.907 86.0559 147.722 83.6948 148.503C78.0735 150.335 73.1328 151.948 68.8307 155.368C66.0912 157.621 63.5084 160.057 61.1003 162.661C57.8822 166.022 54.5547 169.451 49.9838 172.484C46.0222 175.099 41.3787 176.49 36.6321 176.484ZM38.1277 144.419C37.3764 144.438 36.6467 144.675 36.0271 145.1C35.1726 145.872 34.5992 146.907 34.397 148.041C34.2072 148.686 34.2308 149.376 34.4642 150.007C35.1953 151.108 36.296 152.772 40.1276 151.007C41.077 150.234 41.9677 147.411 41.5308 146.528C40.993 145.781 39.8083 144.419 38.1277 144.419ZM53.933 141.378C54.9982 144.063 55.3204 146.986 54.8656 149.839C56.6311 148.079 58.4878 146.413 60.4281 144.848C66.6124 139.932 73.1496 137.781 79.4767 135.706C81.7958 134.941 83.9889 134.219 86.1988 133.37C98.8866 128.404 124.464 112.851 143.176 100.054C151.747 94.1721 154.554 87.9458 155.343 83.4924C144.622 89.5087 124.187 101.835 108.239 111.465C57.9074 141.857 57.4452 141.806 53.9582 141.386L53.933 141.378Z" fill="#191919"/>
  <path d="M20.4825 160.939C28.4061 171.392 39.4302 171.442 46.2615 166.888C53.4457 162.107 57.3361 155.906 64.6463 150.083C71.9565 144.26 80.3003 142.899 88.6608 139.588C101.71 134.479 127.573 118.834 146.983 105.566C166.25 92.3908 162.864 75.1067 160.679 73.4766C158.494 71.8465 58.1679 135.093 54.8069 134.681C51.4459 134.269 43.8836 122.85 27.2885 130.74C16.8105 135.74 13.4915 151.721 20.4825 160.939ZM47.0513 142.714C50.1771 147.217 47.1018 155.149 43.0937 157.04C39.0857 158.931 33.0107 159.989 28.8094 153.679C25.8937 149.259 28.2884 142.008 32.3637 139.395C37.7413 136.042 43.6903 137.907 47.0513 142.714Z" fill="white"/>
</svg>
